<?xml version="1.0" encoding="UTF-8"?>
<!DOCTYPE svg PUBLIC "-//W3C//DTD SVG 1.1//EN" "http://www.w3.org/Graphics/SVG/1.1/DTD/svg11.dtd">
<!-- Creator: CorelDRAW -->
<svg xmlns="http://www.w3.org/2000/svg" xml:space="preserve" width="500px" height="500px" version="1.1" style="shape-rendering:geometricPrecision; text-rendering:geometricPrecision; image-rendering:optimizeQuality; fill-rule:evenodd; clip-rule:evenodd"
viewBox="0 0 2525 2525"
 xmlns:xlink="http://www.w3.org/1999/xlink"
 xmlns:xodm="http://www.corel.com/coreldraw/odm/2003">
 <defs>
  <style type="text/css">
   <![CDATA[
    .fil0 {fill:none}
    .fil1 {fill:#CCCCCC;fill-rule:nonzero;fill-opacity:0.501961}
   ]]>
  </style>
 </defs>
 <g id="Layer_x0020_1">
  <metadata id="CorelCorpID_0Corel-Layer"/>
  <rect class="fil0" width="2525" height="2525"/>
  <rect class="fil0" x="186" y="186" width="2152" height="2152"/>
  <path class="fil1" d="M270 1851c-53,54 -84,126 -84,202 0,158 128,285 286,285 76,0 148,-30 202,-83l495 -495c-33,-88 -38,-184 -15,-274l-260 -259 -624 624zm247 -1644c-40,-31 -97,-27 -133,9l-168 168c-36,36 -40,92 -9,133l336 437c19,25 49,39 80,39l228 0 458 459c-62,122 -42,275 60,376l471 471c52,53 137,53 190,0l269 -269c53,-53 53,-138 0,-190l-471 -471c-101,-102 -254,-122 -376,-60l-458 -458 0 -228c0,-31 -15,-61 -40,-80l-437 -336zm1822 585c0,-44 -5,-87 -14,-128 -10,-48 -68,-60 -102,-26l-268 269c-13,13 -30,20 -48,20l-241 -1c-37,0 -67,-30 -67,-67l0 -241c0,-18 7,-35 20,-48l268 -268c34,-34 22,-92 -25,-102 -42,-9 -85,-14 -129,-14 -334,0 -605,272 -605,606l0 3 359 359c151,-39 318,2 437,120l66 66c206,-96 349,-306 349,-548zm-1917 1210c0,-55 45,-101 101,-101 55,0 101,46 101,101 0,56 -46,101 -101,101 -56,0 -101,-45 -101,-101l0 0z"/>
 </g>
</svg>
